<svg xmlns="http://www.w3.org/2000/svg" viewBox="0 0 512 512"><g data-name="Afro Male Graduated Student"><path d="M448 128 256 234.667 64 128c0-58.91 85.961-106.667 192-106.667S448 69.09 448 128z" style="fill:#133846"/><path d="M384 149.333v-1.791a104.389 104.389 0 0 0-29.02-72.417l15.437-14.73a125.674 125.674 0 0 1 34.916 87.147z" style="fill:#012334"/><rect x="341.333" y="192" width="42.667" height="64" rx="21.333" ry="21.333" style="fill:#361200"/><rect x="128" y="192" width="42.667" height="64" rx="21.333" ry="21.333" style="fill:#552a1f"/><path d="M192 277.333v64a21.333 21.333 0 0 1-21.333 21.334h-64A85.333 85.333 0 0 0 21.333 448v42.667h469.334V448a85.333 85.333 0 0 0-85.334-85.333h-64A21.333 21.333 0 0 1 320 341.333v-64z" style="fill:#552a1f"/><rect x="149.333" y="405.333" width="85.333" height="42.667" rx="21.333" ry="21.333" style="fill:#edbda4"/><circle cx="213.333" cy="426.667" r="21.333" style="fill:#f5d9cb"/><path d="M341.333 362.667A21.334 21.334 0 0 1 320 341.333v-64h-64v85.334h21.333V384h-42.666v21.333a21.333 21.333 0 1 0 42.666 0h85.334v-42.666z" style="fill:#361200"/><path d="M256 384v106.667h234.667V448a85.333 85.333 0 0 0-85.334-85.333h-64L320 341.333z" style="fill:#95daec"/><path d="M192 341.333 256 384v106.667H21.333V448a85.333 85.333 0 0 1 85.334-85.333h64z" style="fill:#caecf6"/><path d="M341.333 362.667h149.334v128h-64a85.333 85.333 0 0 1-85.334-85.334v-42.666z" transform="rotate(-180 416 426.667)" style="fill:#224552"/><path style="fill:#062d3c" d="M362.667 384h42.667v106.667h-42.667z"/><path style="fill:#345460" d="M341.333 362.667H384v128h-42.667z"/><path style="fill:#3ebcdd" d="M298.667 448v42.667H256v-64l21.333-21.334h64L298.667 448z"/><path style="fill:#133846" d="m213.333 405.333 21.334 21.334-21.334 64h85.334l-21.334-64 24.001-20L256 384l-42.667 21.333z"/><path style="fill:#4c6a74" d="M234.667 384h42.667v21.333h-42.667zM234.667 448H256v42.667h-21.333z"/><path style="fill:#a2b2ba" d="M234.667 469.333H256v21.333h-21.333z"/><path style="fill:#012334" d="M234.667 426.667h42.667V448h-42.667z"/><path style="fill:#062d3c" d="M256 405.333h21.333v21.333H256z"/><path style="fill:#95daec" d="M170.667 405.333H192v85.333h-21.333z"/><path style="fill:#e7f6fa" d="m192 341.333-21.333 21.334v64L256 384l-64-42.667z"/><path style="fill:#caecf6" d="m256 384 85.333 42.667v-64L320 341.333 256 384z"/><path d="M106.667 362.667h64v128H21.333V448a85.333 85.333 0 0 1 85.334-85.333z" style="fill:#345460"/><path style="fill:#4c6a74" d="M128 362.667h42.667v128H128z"/><rect x="149.333" y="42.667" width="213.333" height="298.667" rx="106.667" ry="106.667" style="fill:#8f492b"/><path d="M320 64.483v84.85h-42.667v21.334H320v42.666a21.333 21.333 0 0 1 21.333 21.334A21.333 21.333 0 0 1 320 256h-64v64h21.333v19.184a106.69 106.69 0 0 0 85.334-104.517v-85.334c0-34.784-16.901-65.379-42.667-84.85z" style="fill:#552a1f"/><path style="fill:#062d3c" d="M128 170.667 149.333 192v21.333h21.334v-64H128v21.334z"/><path style="fill:#012334" d="M341.333 149.333v64h21.334V192L384 170.667v-21.334h-42.667z"/><path d="M384 170.667v-21.334a128 128 0 0 0-128-128 128 128 0 0 0-128 128v21.334s42.667-21.334 128-21.334 128 21.334 128 21.334z" style="fill:#224552"/><path d="M256 21.333v128c85.333 0 128 21.334 128 21.334v-21.334a128 128 0 0 0-128-128z" style="fill:#062d3c"/><path d="M369.75 165.406c-.448-.166-46-16.073-113.75-16.073s-113.302 15.907-113.75 16.073l-7.177-20.094C137.053 144.605 184.292 128 256 128s118.948 16.604 120.927 17.313z" style="fill:#012334"/><path d="m142.25 144.073-7.177-20.094c1.98-.708 49.219-17.312 120.927-17.312a450.132 450.132 0 0 1 65.552 4.75l-3.104 21.104A429.613 429.613 0 0 0 256 128c-67.75 0-113.302 15.906-113.75 16.073z" style="fill:#224552"/><path d="m259.188 127.51-6.375-20.354a1041.857 1041.857 0 0 1 107.875-26.281l3.958 20.958a1042.79 1042.79 0 0 0-105.459 25.677z" style="fill:#012334"/><path style="fill:#361200" d="M234.667 234.667V256h42.666v-64H320v-21.333h-64v64h-21.333z"/><path style="fill:#290300" d="M298.667 192H320v21.333h-21.333zM192 192h21.333v21.333H192z"/><path style="fill:#c6262d" d="M234.667 277.333h42.667v21.333h-42.667z"/><path d="M64 490.667H42.667V448a64.07 64.07 0 0 1 64-64v21.333A42.709 42.709 0 0 0 64 448zM89.896 74.667c102.104 0 166.104 32 166.104 32s85.333-32 166.104-32C388.892 42.815 327.026 21.333 256 21.333S123.108 42.815 89.896 74.667z" style="fill:#607a8a"/><path d="m256 107.26-3.427-1.156c-.469-.156-47.448-15.937-126.417-29.812l3.688-21.021C199.302 67.49 243.688 80.854 256 84.78c12.313-3.927 56.698-17.291 126.156-29.51l3.688 21.02c-78.969 13.876-125.948 29.657-126.417 29.813zM149.333 384h21.333v106.667h-21.333z" style="fill:#345460"/><path style="fill:#4c6a74" d="M341.333 384h21.333v106.667h-21.333z"/><path style="fill:#cb393f" d="M106.667 42.667H128v192h-21.333z"/><path d="M106.667 192s-21.334 0-21.334 21.333v85.334h21.334v-21.334L128 298.667h21.333v-85.334C149.333 192 128 192 128 192z" style="fill:#ce464d"/><path style="fill:#d7686d" d="M85.333 213.333h21.333v85.333H85.333z"/><path d="M149.333 298.667H128l-21.333-21.334V192H128a21.333 21.333 0 0 1 21.333 21.333z" style="fill:#ab0008"/><path style="fill:#95070c" d="M128 213.333h21.333v85.333H128z"/><circle cx="117.333" cy="160" r="32" style="fill:#cb393f"/><path style="fill:#ab0008" d="M106.667 106.667H128V128h-21.333z"/><circle cx="96" cy="160" r="10.667" style="fill:#e8a8ab"/></g></svg>